<svg xmlns="http://www.w3.org/2000/svg" width="900" height="700" viewBox="0 0 900 700">
  <defs>
    <linearGradient id="bg" x1="0" y1="0" x2="0" y2="1">
      <stop offset="0" stop-color="#ffffff"/>
      <stop offset="1" stop-color="#fbf2ee"/>
    </linearGradient>
    <filter id="shadow" x="-20%" y="-20%" width="140%" height="140%">
      <feDropShadow dx="0" dy="18" stdDeviation="22" flood-color="#a0725a" flood-opacity="0.22"/>
    </filter>
  </defs>
  <rect width="900" height="700" rx="44" fill="url(#bg)"/>

  <!-- Pouch / packet -->
  <g filter="url(#shadow)" transform="translate(170,160) rotate(-10 280 200)">
    <path d="M120 110 Q120 70 160 70 H400 Q440 70 440 110 L460 380 Q468 460 390 460 H170 Q92 460 100 380 Z" fill="#f7e6d7" stroke="#ead8d0" stroke-width="8"/>
    <path d="M150 108 H410" stroke="#d7c2b6" stroke-width="8" stroke-linecap="round"/>
    <text x="180" y="210" font-family="Georgia, serif" font-size="72" fill="#2b1d17" font-weight="700" opacity="0.9">Sophia</text>
    <circle cx="390" cy="250" r="22" fill="#d3a54a"/>
    <path d="M388 230 C381 246 384 262 397 274 C397 258 400 246 408 234 C401 237 395 237 388 230 Z" fill="#8b4a2f" opacity="0.9"/>
    <rect x="340" y="292" width="86" height="36" rx="18" fill="#f6c9d9"/>
    <text x="383" y="316" text-anchor="middle" font-family="Arial, Helvetica, sans-serif" font-size="16" fill="#8b4a2f" font-weight="700">GEL</text>
  </g>

  <!-- Decorative blobs -->
  <circle cx="140" cy="170" r="84" fill="#f3d6cc" opacity="0.6"/>
  <circle cx="760" cy="200" r="92" fill="#f6c9d9" opacity="0.5"/>
  <circle cx="760" cy="540" r="120" fill="#fde3dd" opacity="0.5"/>
</svg>
