<svg xmlns="http://www.w3.org/2000/svg" width="900" height="700" viewBox="0 0 900 700">
  <defs>
    <linearGradient id="bg" x1="0" y1="0" x2="0" y2="1">
      <stop offset="0" stop-color="#ffffff"/>
      <stop offset="1" stop-color="#fbf2ee"/>
    </linearGradient>
    <filter id="shadow" x="-20%" y="-20%" width="140%" height="140%">
      <feDropShadow dx="0" dy="18" stdDeviation="22" flood-color="#a0725a" flood-opacity="0.22"/>
    </filter>
  </defs>
  <rect width="900" height="700" rx="44" fill="url(#bg)"/>

  <!-- Tube -->
  <g filter="url(#shadow)" transform="translate(250,90)">
    <path d="M150 60 H250 L280 470 Q285 540 200 560 Q115 540 120 470 Z" fill="#ffffff" stroke="#ead8d0" stroke-width="8"/>
    <rect x="150" y="520" width="100" height="72" rx="18" fill="#1d1b1a"/>
    <rect x="150" y="210" width="100" height="140" rx="22" fill="#fff6f1" stroke="#ead8d0" stroke-width="6"/>
    <circle cx="170" cy="280" r="18" fill="#d3a54a"/>
    <path d="M169 262 C162 278 165 294 178 306 C178 290 181 278 189 266 C182 269 176 269 169 262 Z" fill="#8b4a2f" opacity="0.85"/>
    <text x="194" y="286" font-family="Georgia, serif" font-size="28" fill="#8b4a2f" font-weight="700">Sophia</text>
    <text x="194" y="314" font-family="Arial, Helvetica, sans-serif" font-size="16" fill="#8b6f66" letter-spacing="2">CREAM</text>
  </g>

  <!-- Decorative blobs -->
  <circle cx="150" cy="210" r="90" fill="#f3d6cc" opacity="0.62"/>
  <circle cx="740" cy="220" r="96" fill="#f6c9d9" opacity="0.52"/>
  <circle cx="750" cy="540" r="120" fill="#fde3dd" opacity="0.52"/>
</svg>
