<svg xmlns="http://www.w3.org/2000/svg" width="900" height="700" viewBox="0 0 900 700">
  <defs>
    <linearGradient id="bg" x1="0" y1="0" x2="0" y2="1">
      <stop offset="0" stop-color="#ffffff"/>
      <stop offset="1" stop-color="#fbf2ee"/>
    </linearGradient>
    <filter id="shadow" x="-20%" y="-20%" width="140%" height="140%">
      <feDropShadow dx="0" dy="18" stdDeviation="22" flood-color="#a0725a" flood-opacity="0.22"/>
    </filter>
  </defs>
  <rect width="900" height="700" rx="44" fill="url(#bg)"/>

  <!-- Bottle -->
  <g filter="url(#shadow)" transform="translate(280,70)">
    <rect x="140" y="48" width="60" height="46" rx="10" fill="#1d1b1a"/>
    <rect x="128" y="86" width="84" height="88" rx="18" fill="#2a2726"/>
    <rect x="86" y="160" width="168" height="360" rx="60" fill="#ffffff" stroke="#ead8d0" stroke-width="8"/>
    <rect x="112" y="258" width="116" height="152" rx="22" fill="#fff6f1" stroke="#ead8d0" stroke-width="6"/>
    <circle cx="132" cy="320" r="18" fill="#d3a54a"/>
    <path d="M131 302 C124 318 127 334 140 346 C140 330 143 318 151 306 C144 309 138 309 131 302 Z" fill="#8b4a2f" opacity="0.85"/>
    <text x="160" y="326" font-family="Georgia, serif" font-size="28" fill="#8b4a2f" font-weight="700">Sophia</text>
    <text x="160" y="354" font-family="Arial, Helvetica, sans-serif" font-size="16" fill="#8b6f66" letter-spacing="2">SERUM</text>
  </g>

  <!-- Decorative blobs -->
  <circle cx="150" cy="210" r="90" fill="#f3d6cc" opacity="0.62"/>
  <circle cx="740" cy="220" r="96" fill="#f6c9d9" opacity="0.52"/>
  <circle cx="750" cy="540" r="120" fill="#fde3dd" opacity="0.52"/>
</svg>
